# xmcd
#
# Track frame offsets: 
#        150
#        12719
#        30904
#        45311
#        61613
#        76158
#
# Disc length: 1236 seconds
#
# Revision: 0
# Processed by: cddbd v1.5.2PL0 Copyright (c) Steve Scherf et al.
# Submitted via: ExactAudioCopy v1.0b3
#
DISCID=3504d206
DTITLE=Thomas Rhett - Acoustic EP
DYEAR=2012
DGENRE=Country
TTITLE0=Whatcha Got In That Cup
TTITLE1=Beer With Jesus
TTITLE2=Something To Do With My Hands
TTITLE3=I Ain't Ready To Quit
TTITLE4=Tobacco
TTITLE5=Front Porch Junkie
EXTD=
EXTT0=
EXTT1=
EXTT2=
EXTT3=
EXTT4=
EXTT5=
PLAYORDER=
